G04*
G04 #@! TF.GenerationSoftware,Altium Limited,Altium Designer,26.2.0 (7)*
G04*
G04 Layer_Color=65535*
%FSLAX44Y44*%
%MOMM*%
G71*
G04*
G04 #@! TF.SameCoordinates,84FDC0FD-F34B-4609-B6C0-DA9C774B5D71*
G04*
G04*
G04 #@! TF.FilePolarity,Positive*
G04*
G01*
G75*
%ADD10C,0.2500*%
%ADD11C,0.2000*%
%ADD12R,0.2000X1.5000*%
D10*
X995000Y597500D02*
G03*
X995000Y597500I-1250J0D01*
G01*
X882000Y527250D02*
G03*
X882000Y527250I-1250J0D01*
G01*
X707500Y482500D02*
G03*
X707500Y482500I-1250J0D01*
G01*
X882000Y427250D02*
G03*
X882000Y427250I-1250J0D01*
G01*
X995000Y447500D02*
G03*
X995000Y447500I-1250J0D01*
G01*
D11*
X1037000Y507250D02*
Y592750D01*
X963000Y507250D02*
X1037000D01*
X963000D02*
Y592750D01*
X1037000D01*
X697261Y443000D02*
X699485D01*
X690515D02*
X692739D01*
X695018D02*
X697261D01*
X692739D02*
X694982D01*
X695018D01*
X690515Y467000D02*
X699485D01*
X691263Y397000D02*
X698737D01*
X691263Y373000D02*
X698737D01*
X863500Y514250D02*
X870750D01*
X819250D02*
X826500D01*
X819250Y558500D02*
Y565750D01*
Y514250D02*
Y521500D01*
X863500Y565750D02*
X870750D01*
X819250D02*
X826500D01*
X870750Y558500D02*
Y565750D01*
Y514250D02*
Y521500D01*
X931750Y569000D02*
Y591000D01*
X888250D02*
X931750D01*
X888250Y569000D02*
Y591000D01*
Y569000D02*
X931750D01*
X903500Y389500D02*
Y400500D01*
X886500Y389500D02*
Y400500D01*
X933500Y389500D02*
Y400500D01*
X916500Y389500D02*
Y400500D01*
X903500Y489500D02*
Y500500D01*
X886500Y489500D02*
Y500500D01*
X933500Y489500D02*
Y500500D01*
X916500Y489500D02*
Y500500D01*
X798500Y399500D02*
Y410500D01*
X781500Y399500D02*
Y410500D01*
X768500Y399500D02*
Y410500D01*
X751500Y399500D02*
Y410500D01*
X769500Y441500D02*
X780500D01*
X769500Y458500D02*
X780500D01*
X663000Y487250D02*
Y572750D01*
X737000D01*
Y487250D02*
Y572750D01*
X663000Y487250D02*
X737000D01*
X863500Y414250D02*
X870750D01*
X819250D02*
X826500D01*
X819250Y458500D02*
Y465750D01*
Y414250D02*
Y421500D01*
X863500Y465750D02*
X870750D01*
X819250D02*
X826500D01*
X870750Y458500D02*
Y465750D01*
Y414250D02*
Y421500D01*
X781500Y499500D02*
Y510500D01*
X798500Y499500D02*
Y510500D01*
X751500Y499500D02*
Y510500D01*
X768500Y499500D02*
Y510500D01*
X769500Y558500D02*
X780500D01*
X769500Y541500D02*
X780500D01*
X963000Y442750D02*
X1037000D01*
X963000Y357250D02*
Y442750D01*
Y357250D02*
X1037000D01*
Y442750D01*
X968323Y478695D02*
Y490691D01*
X972322Y486693D01*
X976321Y490691D01*
Y478695D01*
X980319D02*
Y486693D01*
X984318Y490691D01*
X988317Y486693D01*
Y478695D01*
Y484693D01*
X980319D01*
X992315Y490691D02*
X1000313Y478695D01*
Y490691D02*
X992315Y478695D01*
X1016308D02*
X1020306D01*
X1018307D01*
Y490691D01*
X1016308Y488692D01*
X1026304Y478695D02*
Y486693D01*
X1030303Y490691D01*
X1034302Y486693D01*
Y478695D01*
Y484693D01*
X1026304D01*
X991316Y471496D02*
X987317D01*
X985318Y469497D01*
Y461499D01*
X987317Y459500D01*
X991316D01*
X993315Y461499D01*
Y469497D01*
X991316Y471496D01*
X997314D02*
Y461499D01*
X999313Y459500D01*
X1003312D01*
X1005311Y461499D01*
Y471496D01*
X1009310D02*
X1017307D01*
X1013309D01*
Y459500D01*
X958000Y374311D02*
X946004D01*
X952002Y368312D01*
Y376310D01*
X946004Y380309D02*
X954001D01*
X958000Y384307D01*
X954001Y388306D01*
X946004D01*
Y410299D02*
Y406300D01*
X948003Y404301D01*
X956001D01*
X958000Y406300D01*
Y410299D01*
X956001Y412298D01*
X948003D01*
X946004Y410299D01*
Y416297D02*
X956001D01*
X958000Y418296D01*
Y422295D01*
X956001Y424294D01*
X946004D01*
Y428293D02*
Y436291D01*
Y432292D01*
X958000D01*
X946004Y526247D02*
Y518250D01*
X952002D01*
X950003Y522249D01*
Y524248D01*
X952002Y526247D01*
X956001D01*
X958000Y524248D01*
Y520249D01*
X956001Y518250D01*
X946004Y530246D02*
X954001D01*
X958000Y534245D01*
X954001Y538244D01*
X946004D01*
Y560237D02*
Y556238D01*
X948003Y554238D01*
X956001D01*
X958000Y556238D01*
Y560237D01*
X956001Y562236D01*
X948003D01*
X946004Y560237D01*
Y566235D02*
X956001D01*
X958000Y568234D01*
Y572233D01*
X956001Y574232D01*
X946004D01*
Y578231D02*
Y586228D01*
Y582229D01*
X958000D01*
X662000Y579500D02*
Y591496D01*
X665999Y587497D01*
X669997Y591496D01*
Y579500D01*
X673996D02*
Y587497D01*
X677995Y591496D01*
X681993Y587497D01*
Y579500D01*
Y585498D01*
X673996D01*
X685992Y591496D02*
X693990Y579500D01*
Y591496D02*
X685992Y579500D01*
X709985Y591496D02*
Y583499D01*
X713983Y579500D01*
X717982Y583499D01*
Y591496D01*
X721981D02*
X725979D01*
X723980D01*
Y579500D01*
X721981D01*
X725979D01*
X731977D02*
Y591496D01*
X739975Y579500D01*
Y591496D01*
X755970Y589497D02*
X757969Y591496D01*
X761968D01*
X763967Y589497D01*
Y587497D01*
X761968Y585498D01*
X759968D01*
X761968D01*
X763967Y583499D01*
Y581499D01*
X761968Y579500D01*
X757969D01*
X755970Y581499D01*
X775963Y591496D02*
X767966D01*
Y585498D01*
X771964Y587497D01*
X773964D01*
X775963Y585498D01*
Y581499D01*
X773964Y579500D01*
X769965D01*
X767966Y581499D01*
X779962Y591496D02*
Y583499D01*
X783960Y579500D01*
X787959Y583499D01*
Y591496D01*
X873334Y589595D02*
X870002D01*
X871668D01*
Y581264D01*
X870002Y579598D01*
X868335D01*
X866669Y581264D01*
X881665Y579598D02*
Y589595D01*
X876666Y584596D01*
X883331D01*
X1018334Y524998D02*
X1015002D01*
X1016668D01*
Y516668D01*
X1015002Y515002D01*
X1013335D01*
X1011669Y516668D01*
X1021666Y523332D02*
X1023332Y524998D01*
X1026665D01*
X1028331Y523332D01*
Y521666D01*
X1026665Y520000D01*
X1024998D01*
X1026665D01*
X1028331Y518334D01*
Y516668D01*
X1026665Y515002D01*
X1023332D01*
X1021666Y516668D01*
X818169Y587498D02*
Y579168D01*
X819835Y577502D01*
X823168D01*
X824834Y579168D01*
Y587498D01*
X834831Y577502D02*
X828166D01*
X834831Y584166D01*
Y585832D01*
X833165Y587498D01*
X829832D01*
X828166Y585832D01*
X816102Y488025D02*
Y479694D01*
X817768Y478028D01*
X821100D01*
X822766Y479694D01*
Y488025D01*
X826099Y478028D02*
X829431D01*
X827765D01*
Y488025D01*
X826099Y486359D01*
X726002Y392664D02*
X735998D01*
Y387666D01*
X734332Y386000D01*
X731000D01*
X729334Y387666D01*
Y392664D01*
Y389332D02*
X726002Y386000D01*
Y382668D02*
Y379336D01*
Y381002D01*
X735998D01*
X734332Y382668D01*
X1020834Y437498D02*
X1017502D01*
X1019168D01*
Y429168D01*
X1017502Y427502D01*
X1015835D01*
X1014169Y429168D01*
X1030831Y427502D02*
X1024166D01*
X1030831Y434166D01*
Y435832D01*
X1029165Y437498D01*
X1025832D01*
X1024166Y435832D01*
X680000Y552498D02*
X676668D01*
X678334D01*
Y544168D01*
X676668Y542502D01*
X675002D01*
X673335Y544168D01*
X683332Y542502D02*
X686665D01*
X684998D01*
Y552498D01*
X683332Y550832D01*
X732498Y455000D02*
Y461665D01*
X727500D01*
Y458332D01*
Y461665D01*
X722502D01*
Y451668D02*
Y448335D01*
Y450002D01*
X732498D01*
X730832Y451668D01*
X732498Y426665D02*
X722502D01*
Y421666D01*
X724168Y420000D01*
X730832D01*
X732498Y421666D01*
Y426665D01*
X722502Y416668D02*
Y413335D01*
Y415002D01*
X732498D01*
X730832Y416668D01*
X810832Y558331D02*
X812498Y559998D01*
Y563330D01*
X810832Y564996D01*
X804168D01*
X802502Y563330D01*
Y559998D01*
X804168Y558331D01*
X802502Y554999D02*
Y551667D01*
Y553333D01*
X812498D01*
X810832Y554999D01*
Y546669D02*
X812498Y545002D01*
Y541670D01*
X810832Y540004D01*
X804168D01*
X802502Y541670D01*
Y545002D01*
X804168Y546669D01*
X810832D01*
X924334Y536332D02*
X922668Y537998D01*
X919335D01*
X917669Y536332D01*
Y529668D01*
X919335Y528002D01*
X922668D01*
X924334Y529668D01*
X927666D02*
X929332Y528002D01*
X932664D01*
X934331Y529668D01*
Y536332D01*
X932664Y537998D01*
X929332D01*
X927666Y536332D01*
Y534666D01*
X929332Y533000D01*
X934331D01*
X893334Y536332D02*
X891668Y537998D01*
X888335D01*
X886669Y536332D01*
Y529668D01*
X888335Y528002D01*
X891668D01*
X893334Y529668D01*
X896666Y536332D02*
X898332Y537998D01*
X901665D01*
X903331Y536332D01*
Y534666D01*
X901665Y533000D01*
X903331Y531334D01*
Y529668D01*
X901665Y528002D01*
X898332D01*
X896666Y529668D01*
Y531334D01*
X898332Y533000D01*
X896666Y534666D01*
Y536332D01*
X898332Y533000D02*
X901665D01*
X788334Y474332D02*
X786668Y475998D01*
X783335D01*
X781669Y474332D01*
Y467668D01*
X783335Y466002D01*
X786668D01*
X788334Y467668D01*
X791666Y475998D02*
X798331D01*
Y474332D01*
X791666Y467668D01*
Y466002D01*
X757334Y475332D02*
X755668Y476998D01*
X752336D01*
X750669Y475332D01*
Y468668D01*
X752336Y467002D01*
X755668D01*
X757334Y468668D01*
X767331Y476998D02*
X763998Y475332D01*
X760666Y472000D01*
Y468668D01*
X762332Y467002D01*
X765665D01*
X767331Y468668D01*
Y470334D01*
X765665Y472000D01*
X760666D01*
X810832Y451666D02*
X812498Y453332D01*
Y456665D01*
X810832Y458331D01*
X804168D01*
X802502Y456665D01*
Y453332D01*
X804168Y451666D01*
X812498Y441669D02*
Y448334D01*
X807500D01*
X809166Y445002D01*
Y443335D01*
X807500Y441669D01*
X804168D01*
X802502Y443335D01*
Y446668D01*
X804168Y448334D01*
X924334Y435841D02*
X922668Y437507D01*
X919335D01*
X917669Y435841D01*
Y429176D01*
X919335Y427510D01*
X922668D01*
X924334Y429176D01*
X932664Y427510D02*
Y437507D01*
X927666Y432509D01*
X934331D01*
X893334Y435841D02*
X891668Y437507D01*
X888335D01*
X886669Y435841D01*
Y429176D01*
X888335Y427510D01*
X891668D01*
X893334Y429176D01*
X896666Y435841D02*
X898332Y437507D01*
X901665D01*
X903331Y435841D01*
Y434175D01*
X901665Y432509D01*
X899998D01*
X901665D01*
X903331Y430843D01*
Y429176D01*
X901665Y427510D01*
X898332D01*
X896666Y429176D01*
X788334Y372332D02*
X786668Y373998D01*
X783335D01*
X781669Y372332D01*
Y365668D01*
X783335Y364002D01*
X786668D01*
X788334Y365668D01*
X798331Y364002D02*
X791666D01*
X798331Y370666D01*
Y372332D01*
X796665Y373998D01*
X793332D01*
X791666Y372332D01*
X760000D02*
X758334Y373998D01*
X755002D01*
X753335Y372332D01*
Y365668D01*
X755002Y364002D01*
X758334D01*
X760000Y365668D01*
X763332Y364002D02*
X766665D01*
X764998D01*
Y373998D01*
X763332Y372332D01*
D12*
X669000Y420500D02*
D03*
M02*
