G04*
G04 #@! TF.GenerationSoftware,Altium Limited,Altium Designer,26.2.0 (7)*
G04*
G04 Layer_Color=8388736*
%FSLAX44Y44*%
%MOMM*%
G71*
G04*
G04 #@! TF.SameCoordinates,84FDC0FD-F34B-4609-B6C0-DA9C774B5D71*
G04*
G04*
G04 #@! TF.FilePolarity,Negative*
G04*
G01*
G75*
%ADD13R,1.3000X1.3000*%
%ADD14R,1.5194X1.9552*%
%ADD15R,1.6038X1.8582*%
%ADD19R,1.6032X1.8032*%
%ADD20C,0.3150*%
%ADD21R,3.1500X3.1500*%
%ADD22R,2.1032X1.5532*%
%ADD23R,1.5532X2.1032*%
%ADD24R,1.8500X1.8500*%
%ADD25C,1.8500*%
%ADD26C,1.3000*%
%ADD27C,1.4732*%
G36*
X859750Y460750D02*
Y460402D01*
X859483Y459759D01*
X858991Y459266D01*
X858348Y459000D01*
X857652D01*
X857009Y459266D01*
X856516Y459759D01*
X856250Y460402D01*
Y460750D01*
Y469000D01*
X859750D01*
Y460750D01*
D02*
G37*
G36*
X853250D02*
Y460402D01*
X852984Y459759D01*
X852491Y459266D01*
X851848Y459000D01*
X851152D01*
X850509Y459266D01*
X850016Y459759D01*
X849750Y460402D01*
Y460750D01*
Y469000D01*
X853250D01*
X853250Y460750D01*
D02*
G37*
G36*
X846750D02*
Y460402D01*
X846484Y459759D01*
X845991Y459266D01*
X845348Y459000D01*
X844652D01*
X844009Y459266D01*
X843516Y459759D01*
X843250Y460402D01*
Y460750D01*
Y469000D01*
X846750D01*
Y460750D01*
D02*
G37*
G36*
X840250D02*
Y460402D01*
X839984Y459759D01*
X839491Y459266D01*
X838848Y459000D01*
X838152D01*
X837509Y459266D01*
X837016Y459759D01*
X836750Y460402D01*
Y460750D01*
X836750D01*
Y469000D01*
X840250D01*
Y460750D01*
D02*
G37*
G36*
X833750D02*
Y460402D01*
X833484Y459759D01*
X832991Y459266D01*
X832348Y459000D01*
X831652D01*
X831009Y459266D01*
X830516Y459759D01*
X830250Y460402D01*
Y460750D01*
Y469000D01*
X833750D01*
Y460750D01*
D02*
G37*
G36*
X874000Y451250D02*
X865402D01*
X864759Y451516D01*
X864266Y452009D01*
X864000Y452652D01*
Y453000D01*
Y453348D01*
X864266Y453991D01*
X864759Y454483D01*
X865402Y454750D01*
X874000D01*
Y451250D01*
D02*
G37*
G36*
X825241Y454483D02*
X825734Y453991D01*
X826000Y453348D01*
Y453000D01*
Y452652D01*
X825734Y452009D01*
X825241Y451516D01*
X824598Y451250D01*
X816000D01*
Y454750D01*
X824598D01*
X825241Y454483D01*
D02*
G37*
G36*
X865750Y448250D02*
X874000D01*
Y444750D01*
X865402D01*
X864759Y445016D01*
X864266Y445509D01*
X864000Y446152D01*
Y446500D01*
Y446848D01*
X864266Y447491D01*
X864759Y447984D01*
X865402Y448250D01*
X865750D01*
Y448250D01*
D02*
G37*
G36*
X825241Y447984D02*
X825734Y447491D01*
X826000Y446848D01*
Y446500D01*
Y446152D01*
X825734Y445509D01*
X825241Y445016D01*
X824598Y444750D01*
X816000D01*
Y448250D01*
X824250Y448250D01*
X824598D01*
X825241Y447984D01*
D02*
G37*
G36*
X874000Y438250D02*
X865402D01*
X864759Y438516D01*
X864266Y439009D01*
X864000Y439652D01*
Y440000D01*
Y440348D01*
X864266Y440991D01*
X864759Y441483D01*
X865402Y441750D01*
X874000D01*
Y438250D01*
D02*
G37*
G36*
X825241Y441483D02*
X825734Y440991D01*
X826000Y440348D01*
Y440000D01*
Y439652D01*
X825734Y439009D01*
X825241Y438516D01*
X824598Y438250D01*
X816000D01*
Y441750D01*
X824598D01*
X825241Y441483D01*
D02*
G37*
G36*
X874000Y431750D02*
X865750Y431750D01*
X865402D01*
X864759Y432016D01*
X864266Y432509D01*
X864000Y433152D01*
Y433500D01*
Y433848D01*
X864266Y434491D01*
X864759Y434983D01*
X865402Y435250D01*
X874000D01*
Y431750D01*
D02*
G37*
G36*
X825241Y434983D02*
X825734Y434491D01*
X826000Y433848D01*
Y433500D01*
Y433152D01*
X825734Y432509D01*
X825241Y432016D01*
X824598Y431750D01*
X824250D01*
Y431750D01*
X816000D01*
Y435250D01*
X824598D01*
X825241Y434983D01*
D02*
G37*
G36*
X874000Y425250D02*
X865402D01*
X864759Y425516D01*
X864266Y426009D01*
X864000Y426652D01*
Y427000D01*
Y427348D01*
X864266Y427991D01*
X864759Y428484D01*
X865402Y428750D01*
X874000D01*
Y425250D01*
D02*
G37*
G36*
X825241Y428484D02*
X825734Y427991D01*
X826000Y427348D01*
Y427000D01*
Y426652D01*
X825734Y426009D01*
X825241Y425516D01*
X824598Y425250D01*
X816000D01*
Y428750D01*
X824598D01*
X825241Y428484D01*
D02*
G37*
G36*
X858991Y420734D02*
X859483Y420241D01*
X859750Y419598D01*
Y419250D01*
Y411000D01*
X856250D01*
Y419250D01*
Y419598D01*
X856516Y420241D01*
X857009Y420734D01*
X857652Y421000D01*
X858348D01*
X858991Y420734D01*
D02*
G37*
G36*
X852491D02*
X852984Y420241D01*
X853250Y419598D01*
Y419250D01*
X853250D01*
Y411000D01*
X849750D01*
Y419250D01*
Y419598D01*
X850016Y420241D01*
X850509Y420734D01*
X851152Y421000D01*
X851848D01*
X852491Y420734D01*
D02*
G37*
G36*
X845991D02*
X846484Y420241D01*
X846750Y419598D01*
Y419250D01*
Y411000D01*
X843250D01*
Y419250D01*
Y419598D01*
X843516Y420241D01*
X844009Y420734D01*
X844652Y421000D01*
X845348D01*
X845991Y420734D01*
D02*
G37*
G36*
X839491D02*
X839984Y420241D01*
X840250Y419598D01*
Y419250D01*
Y411000D01*
X836750D01*
X836750Y419250D01*
Y419598D01*
X837016Y420241D01*
X837509Y420734D01*
X838152Y421000D01*
X838848D01*
X839491Y420734D01*
D02*
G37*
G36*
X832991D02*
X833484Y420241D01*
X833750Y419598D01*
Y419250D01*
Y411000D01*
X830250D01*
Y419250D01*
Y419598D01*
X830516Y420241D01*
X831009Y420734D01*
X831652Y421000D01*
X832348D01*
X832991Y420734D01*
D02*
G37*
G36*
X859750Y560750D02*
Y560402D01*
X859483Y559759D01*
X858991Y559266D01*
X858348Y559000D01*
X857652D01*
X857009Y559266D01*
X856516Y559759D01*
X856250Y560402D01*
Y560750D01*
Y569000D01*
X859750D01*
Y560750D01*
D02*
G37*
G36*
X853250D02*
Y560402D01*
X852983Y559759D01*
X852491Y559266D01*
X851848Y559000D01*
X851152D01*
X850509Y559266D01*
X850016Y559759D01*
X849750Y560402D01*
Y560750D01*
Y569000D01*
X853250D01*
X853250Y560750D01*
D02*
G37*
G36*
X846750D02*
Y560402D01*
X846484Y559759D01*
X845991Y559266D01*
X845348Y559000D01*
X844652D01*
X844009Y559266D01*
X843516Y559759D01*
X843250Y560402D01*
Y560750D01*
Y569000D01*
X846750D01*
Y560750D01*
D02*
G37*
G36*
X840250D02*
Y560402D01*
X839984Y559759D01*
X839491Y559266D01*
X838848Y559000D01*
X838152D01*
X837509Y559266D01*
X837016Y559759D01*
X836750Y560402D01*
Y560750D01*
X836750D01*
Y569000D01*
X840250D01*
Y560750D01*
D02*
G37*
G36*
X833750D02*
Y560402D01*
X833484Y559759D01*
X832991Y559266D01*
X832348Y559000D01*
X831652D01*
X831009Y559266D01*
X830516Y559759D01*
X830250Y560402D01*
Y560750D01*
Y569000D01*
X833750D01*
Y560750D01*
D02*
G37*
G36*
X874000Y551250D02*
X865402D01*
X864759Y551516D01*
X864266Y552009D01*
X864000Y552652D01*
Y553000D01*
Y553348D01*
X864266Y553991D01*
X864759Y554484D01*
X865402Y554750D01*
X874000D01*
Y551250D01*
D02*
G37*
G36*
X825241Y554484D02*
X825733Y553991D01*
X826000Y553348D01*
Y553000D01*
Y552652D01*
X825733Y552009D01*
X825241Y551516D01*
X824598Y551250D01*
X816000D01*
Y554750D01*
X824598D01*
X825241Y554484D01*
D02*
G37*
G36*
X865750Y548250D02*
X874000D01*
Y544750D01*
X865402D01*
X864759Y545016D01*
X864266Y545509D01*
X864000Y546152D01*
Y546500D01*
Y546848D01*
X864266Y547491D01*
X864759Y547984D01*
X865402Y548250D01*
X865750D01*
Y548250D01*
D02*
G37*
G36*
X825241Y547984D02*
X825733Y547491D01*
X826000Y546848D01*
Y546500D01*
Y546152D01*
X825733Y545509D01*
X825241Y545016D01*
X824598Y544750D01*
X816000D01*
Y548250D01*
X824250Y548250D01*
X824598D01*
X825241Y547984D01*
D02*
G37*
G36*
X874000Y538250D02*
X865402D01*
X864759Y538516D01*
X864266Y539009D01*
X864000Y539652D01*
Y540000D01*
Y540348D01*
X864266Y540991D01*
X864759Y541484D01*
X865402Y541750D01*
X874000D01*
Y538250D01*
D02*
G37*
G36*
X825241Y541484D02*
X825733Y540991D01*
X826000Y540348D01*
Y540000D01*
Y539652D01*
X825733Y539009D01*
X825241Y538516D01*
X824598Y538250D01*
X816000D01*
Y541750D01*
X824598D01*
X825241Y541484D01*
D02*
G37*
G36*
X874000Y531750D02*
X865750Y531750D01*
X865402D01*
X864759Y532016D01*
X864266Y532509D01*
X864000Y533152D01*
Y533500D01*
Y533848D01*
X864266Y534491D01*
X864759Y534984D01*
X865402Y535250D01*
X874000D01*
Y531750D01*
D02*
G37*
G36*
X825241Y534984D02*
X825733Y534491D01*
X826000Y533848D01*
Y533500D01*
Y533152D01*
X825733Y532509D01*
X825241Y532016D01*
X824598Y531750D01*
X824250D01*
Y531750D01*
X816000D01*
Y535250D01*
X824598D01*
X825241Y534984D01*
D02*
G37*
G36*
X874000Y525250D02*
X865402D01*
X864759Y525516D01*
X864266Y526009D01*
X864000Y526652D01*
Y527000D01*
Y527348D01*
X864266Y527991D01*
X864759Y528484D01*
X865402Y528750D01*
X874000D01*
Y525250D01*
D02*
G37*
G36*
X825241Y528484D02*
X825733Y527991D01*
X826000Y527348D01*
Y527000D01*
Y526652D01*
X825733Y526009D01*
X825241Y525516D01*
X824598Y525250D01*
X816000D01*
Y528750D01*
X824598D01*
X825241Y528484D01*
D02*
G37*
G36*
X858991Y520734D02*
X859483Y520241D01*
X859750Y519598D01*
Y519250D01*
Y511000D01*
X856250D01*
Y519250D01*
Y519598D01*
X856516Y520241D01*
X857009Y520734D01*
X857652Y521000D01*
X858348D01*
X858991Y520734D01*
D02*
G37*
G36*
X852491D02*
X852983Y520241D01*
X853250Y519598D01*
Y519250D01*
X853250D01*
Y511000D01*
X849750D01*
Y519250D01*
Y519598D01*
X850016Y520241D01*
X850509Y520734D01*
X851152Y521000D01*
X851848D01*
X852491Y520734D01*
D02*
G37*
G36*
X845991D02*
X846484Y520241D01*
X846750Y519598D01*
Y519250D01*
Y511000D01*
X843250D01*
Y519250D01*
Y519598D01*
X843516Y520241D01*
X844009Y520734D01*
X844652Y521000D01*
X845348D01*
X845991Y520734D01*
D02*
G37*
G36*
X839491D02*
X839984Y520241D01*
X840250Y519598D01*
Y519250D01*
Y511000D01*
X836750D01*
X836750Y519250D01*
Y519598D01*
X837016Y520241D01*
X837509Y520734D01*
X838152Y521000D01*
X838848D01*
X839491Y520734D01*
D02*
G37*
G36*
X832991D02*
X833484Y520241D01*
X833750Y519598D01*
Y519250D01*
Y511000D01*
X830250D01*
Y519250D01*
Y519598D01*
X830516Y520241D01*
X831009Y520734D01*
X831652Y521000D01*
X832348D01*
X832991Y520734D01*
D02*
G37*
D13*
X920000Y580000D02*
D03*
D14*
X679918Y455000D02*
D03*
X710082D02*
D03*
D15*
X680244Y385000D02*
D03*
X709756D02*
D03*
D19*
X710000Y420000D02*
D03*
X680000D02*
D03*
D20*
X869000Y533500D02*
D03*
Y546500D02*
D03*
Y553000D02*
D03*
X820819D02*
D03*
X821000Y546500D02*
D03*
X820819Y540000D02*
D03*
X821000Y533500D02*
D03*
Y527000D02*
D03*
X845000Y564180D02*
D03*
X838500Y564000D02*
D03*
X832000Y515820D02*
D03*
X869181Y527000D02*
D03*
Y540000D02*
D03*
X858000Y516000D02*
D03*
Y564180D02*
D03*
X851500Y564000D02*
D03*
X832000D02*
D03*
X838500Y516000D02*
D03*
X845000Y515820D02*
D03*
X851500Y516000D02*
D03*
X869000Y433500D02*
D03*
Y446500D02*
D03*
Y453000D02*
D03*
X821000Y446500D02*
D03*
X820819Y440000D02*
D03*
X821000Y433500D02*
D03*
Y427000D02*
D03*
X858000Y464180D02*
D03*
X845000D02*
D03*
X832000Y464000D02*
D03*
Y415820D02*
D03*
X869181Y427000D02*
D03*
Y440000D02*
D03*
X858000Y416000D02*
D03*
X851500Y464000D02*
D03*
X838500D02*
D03*
X820819Y453000D02*
D03*
X838500Y416000D02*
D03*
X845000Y415820D02*
D03*
X851500Y416000D02*
D03*
D21*
X845000Y540000D02*
D03*
X845000Y440000D02*
D03*
D22*
X895000Y411000D02*
D03*
Y379000D02*
D03*
X925000Y411000D02*
D03*
Y379000D02*
D03*
X895000Y511000D02*
D03*
Y479000D02*
D03*
X925000Y511000D02*
D03*
Y479000D02*
D03*
X790000Y421000D02*
D03*
Y389000D02*
D03*
X760000Y421000D02*
D03*
Y389000D02*
D03*
X790000Y489000D02*
D03*
Y521000D02*
D03*
X760000Y489000D02*
D03*
Y521000D02*
D03*
D23*
X791000Y450000D02*
D03*
X759000D02*
D03*
Y550000D02*
D03*
X791000D02*
D03*
D24*
X993750Y567500D02*
D03*
X706250Y512500D02*
D03*
X993750Y417500D02*
D03*
D25*
Y532500D02*
D03*
X706250Y547500D02*
D03*
X993750Y382500D02*
D03*
D26*
X900000Y580000D02*
D03*
D27*
X854400Y549400D02*
D03*
X835600D02*
D03*
Y530600D02*
D03*
X854400D02*
D03*
X854400Y430600D02*
D03*
X835600D02*
D03*
Y449400D02*
D03*
X854400D02*
D03*
X747000Y450000D02*
D03*
X910500Y479000D02*
D03*
X910500Y378000D02*
D03*
X775500Y389000D02*
D03*
Y489000D02*
D03*
M02*
