M48
;Layer_Color=9474304
;FILE_FORMAT=4:4
METRIC,TZ
;TYPE=PLATED
T01F00S00C0.7112
T02F00S00C0.8000
T03F00S00C1.2000
%
T01
X775500Y389000
X910500Y378000
X910500Y479000
X854400Y449400
Y430600
X835600
Y449400
X835600Y530600
Y549400
X854400
Y530600
X775500Y489000
X747000Y450000
T02
X900000Y580000
X920000
T03
X993750Y382500
Y417500
Y532500
Y567500
X706250Y547500
Y512500
M30
